<svg width="16" height="16" viewBox="0 0 16 16" fill="none" xmlns="http://www.w3.org/2000/svg">
<g clip-path="url(#clip0_3169_97280)">
<path d="M6.125 0.760966C6.21651 0.872165 6.27258 1.00825 6.28595 1.15164C6.29932 1.29503 6.26938 1.43914 6.2 1.56534C5.65799 2.56047 5.37494 3.67593 5.37687 4.80909C5.37687 8.57878 8.45 11.6313 12.2375 11.6313C12.7316 11.6313 13.2125 11.5797 13.6747 11.4813C13.8164 11.4506 13.9639 11.4623 14.099 11.515C14.2341 11.5677 14.3506 11.659 14.4341 11.7775C14.5222 11.9008 14.5671 12.0497 14.5618 12.2011C14.5566 12.3525 14.5014 12.4979 14.405 12.6147C13.6697 13.5179 12.7421 14.2457 11.6898 14.7449C10.6376 15.2441 9.48717 15.5022 8.3225 15.5003C4.00062 15.5003 0.5 12.0185 0.5 7.72847C0.5 4.49972 2.48188 1.73034 5.30375 0.556591C5.44432 0.497183 5.60036 0.48499 5.74845 0.521843C5.89654 0.558696 6.02867 0.642605 6.125 0.760966ZM5.05437 1.7294C3.96932 2.31143 3.06222 3.17657 2.4295 4.23287C1.79677 5.28917 1.46206 6.49716 1.46094 7.72847C1.46094 11.4972 4.535 14.5497 8.3225 14.5497C9.22948 14.5513 10.1278 14.373 10.9654 14.025C11.803 13.6771 12.5632 13.1665 13.2022 12.5228C12.8862 12.5622 12.5647 12.5819 12.2375 12.5819C7.91563 12.5819 4.41594 9.10003 4.41594 4.81003C4.41594 3.71597 4.64281 2.6744 5.05437 1.7294Z" fill="black"/>
<path d="M10.6201 3.4518C10.6336 3.4112 10.6595 3.37587 10.6941 3.35083C10.7288 3.32579 10.7705 3.31231 10.8132 3.31231C10.856 3.31231 10.8977 3.32579 10.9324 3.35083C10.967 3.37587 10.9929 3.4112 11.0064 3.4518L11.3692 4.54117C11.5314 5.0268 11.912 5.40742 12.3976 5.56961L13.487 5.93243C13.5276 5.94587 13.5629 5.97176 13.588 6.00643C13.613 6.0411 13.6265 6.08278 13.6265 6.12555C13.6265 6.16832 13.613 6.21 13.588 6.24467C13.5629 6.27934 13.5276 6.30523 13.487 6.31867L12.3976 6.68149C12.1581 6.76128 11.9405 6.89577 11.762 7.07428C11.5835 7.25279 11.449 7.47042 11.3692 7.70993L11.0064 8.7993C10.9929 8.8399 10.967 8.87523 10.9324 8.90027C10.8977 8.92531 10.856 8.93879 10.8132 8.93879C10.7705 8.93879 10.7288 8.92531 10.6941 8.90027C10.6595 8.87523 10.6336 8.8399 10.6201 8.7993L10.2573 7.70993C10.1775 7.47042 10.043 7.25279 9.86451 7.07428C9.686 6.89577 9.46837 6.76128 9.22886 6.68149L8.13949 6.31867C8.09889 6.30523 8.06356 6.27934 8.03852 6.24467C8.01348 6.21 8 6.16832 8 6.12555C8 6.08278 8.01348 6.0411 8.03852 6.00643C8.06356 5.97176 8.09889 5.94587 8.13949 5.93243L9.22886 5.56961C9.46837 5.48982 9.686 5.35533 9.86451 5.17682C10.043 4.99831 10.1775 4.78068 10.2573 4.54117L10.6201 3.4518ZM13.4973 0.593362C13.5066 0.566668 13.5239 0.543521 13.5469 0.527138C13.5699 0.510756 13.5975 0.501953 13.6257 0.501953C13.654 0.501953 13.6815 0.510756 13.7046 0.527138C13.7276 0.543521 13.7449 0.566668 13.7542 0.593362L13.9961 1.31899C14.1039 1.64336 14.3579 1.89742 14.6823 2.00524L15.4079 2.24711C15.4346 2.25637 15.4578 2.27371 15.4741 2.29673C15.4905 2.31975 15.4993 2.3473 15.4993 2.37555C15.4993 2.4038 15.4905 2.43135 15.4741 2.45437C15.4578 2.47739 15.4346 2.49473 15.4079 2.50399L14.6823 2.74586C14.5224 2.79904 14.3772 2.88875 14.2581 3.00788C14.1389 3.127 14.0492 3.27226 13.9961 3.43211L13.7542 4.15774C13.7449 4.18443 13.7276 4.20758 13.7046 4.22396C13.6815 4.24034 13.654 4.24915 13.6257 4.24915C13.5975 4.24915 13.5699 4.24034 13.5469 4.22396C13.5239 4.20758 13.5066 4.18443 13.4973 4.15774L13.2554 3.43211C13.2022 3.27226 13.1125 3.127 12.9934 3.00788C12.8743 2.88875 12.729 2.79904 12.5692 2.74586L11.8436 2.50399C11.8169 2.49473 11.7937 2.47739 11.7773 2.45437C11.7609 2.43135 11.7521 2.4038 11.7521 2.37555C11.7521 2.3473 11.7609 2.31975 11.7773 2.29673C11.7937 2.27371 11.8169 2.25637 11.8436 2.24711L12.5692 2.00524C12.8936 1.89742 13.1476 1.64336 13.2554 1.31899L13.4973 0.594299V0.593362Z" fill="black"/>
</g>
<defs>
<clipPath id="clip0_3169_97280">
<rect width="15" height="15" fill="white" transform="translate(0.5 0.5)"/>
</clipPath>
</defs>
</svg>
