<svg width="46" height="20" viewBox="0 0 46 20" fill="none" xmlns="http://www.w3.org/2000/svg">
<path fill-rule="evenodd" clip-rule="evenodd" d="M38.8968 0.0500011C41.1092 0.0500011 42.8585 0.600001 44.1448 1.8C45.4311 2.95 46.0485 4.55 45.997 6.5V17.15C45.997 17.9 45.7398 18.6 45.1738 19.15C44.6593 19.7 43.939 20 43.1158 20C42.2926 20 41.6237 19.7 41.0578 19.15C40.4918 18.6 40.2345 17.9 40.2345 17.15V8.1C40.2345 7.25 39.9773 6.45 39.4628 5.8C38.9483 5.15 38.228 4.8 37.3533 4.8C36.4786 4.8 35.7583 5.1 35.2438 5.75C34.7293 6.35 34.4721 7.15 34.4721 8.05V17.15C34.4721 17.9 34.2148 18.6 33.6488 19.15C33.1343 19.7 32.414 20 31.5908 20C30.7676 20 30.0987 19.7 29.5328 19.15C28.9668 18.6 28.7096 17.9 28.7096 17.15V8.1C28.7096 7.70002 28.6067 7.30003 28.5038 6.90005C28.3494 6.50005 28.1951 6.15 27.9378 5.85C27.6805 5.55 27.3718 5.3 27.0117 5.1C26.6515 4.9 26.2399 4.8 25.7769 4.8C24.9022 4.8 24.1819 5.15 23.6674 5.8C23.1529 6.45 22.8956 7.2 22.8956 8.1V16.95C22.8956 17.7 22.6384 18.4 22.0724 18.95C21.5064 19.5 20.8376 19.8 20.0144 19.8H14.0975V18.95V18.85V18.75V18.65C14.1271 18.6212 14.1397 18.609 14.145 18.5943C14.149 18.5835 14.149 18.5712 14.149 18.55C14.149 18.525 14.1618 18.5125 14.1747 18.5C14.1876 18.4875 14.2004 18.475 14.2004 18.45L14.2519 18.4L14.3033 18.35L14.3548 18.3L14.4062 18.25L14.4577 18.2C14.4577 18.2 14.4577 18.15 14.5091 18.15C14.5606 18.1 14.5606 18.1 14.612 18.1C14.6635 18.05 14.6635 18.05 14.7149 18.05H14.8178H14.9207H15.0236H15.8469C16.6701 18.05 17.3904 17.4 17.3904 16.55C17.3904 15.75 16.7215 15.05 15.8469 15.05H1.54352C0.668861 15.05 0 14.4 0 13.55C0 12.75 0.668861 12.05 1.54352 12.05H14.2519C15.0751 12.05 15.7954 11.4 15.7954 10.55C15.7954 9.75 15.1265 9.05 14.2519 9.05H12.7084C11.8337 9.05 11.1648 8.4 11.1648 7.55C11.1648 6.75 11.8337 6.05 12.7084 6.05H16.9788C17.8534 6.05 18.5223 5.4 18.5223 4.55C18.5223 3.75 17.8534 3.05 16.9788 3.05H15.0236L9.6213 3C8.74664 3 8.07778 2.3 8.07778 1.5C8.07778 0.7 8.74664 0 9.6213 0H27.8349C28.9668 0 29.9958 0.25 30.9734 0.65C31.951 1.1 32.6713 1.65 33.2372 2.35C34.3177 1.55 35.2953 0.95 36.1699 0.6C37.0446 0.25 37.9707 0.0500011 38.8968 0.0500011Z" fill="#F2C506"/>
</svg>
