<svg width="24" height="24" viewBox="0 0 24 24" fill="none" xmlns="http://www.w3.org/2000/svg">
<g clip-path="url(#clip0_3_1026)">
<path d="M4.67592 21.8343C6.59126 21.8109 8.12498 20.2394 8.10158 18.3243C8.07818 16.4093 6.50653 14.8758 4.59119 14.8992C2.67586 14.9226 1.14214 16.494 1.16554 18.4091C1.18893 20.3242 2.76059 21.8577 4.67592 21.8343Z" fill="#0D924B"/>
<path d="M20.5026 21.835C22.4179 21.8116 23.9516 20.2401 23.9282 18.325C23.9048 16.41 22.3332 14.8765 20.4179 14.8999C18.5025 14.9233 16.9688 16.4947 16.9922 18.4098C17.0156 20.3249 18.5872 21.8584 20.5026 21.835Z" fill="#0D924B"/>
<path d="M23.9531 14.348L23.9475 14.3381C23.2702 13.1371 22.2416 12.1721 21 11.5725C20.8219 11.4863 20.6422 11.4081 20.4609 11.3381C20.4005 8.20314 16.7616 5.27486 16.7616 5.27486C17.737 5.33251 17.7713 4.35939 17.7713 4.35939C17.8308 3.17955 17.0325 2.23408 15.9305 2.16939C15.6529 2.15454 15.3776 2.22664 15.143 2.37564L14.505 2.77642C14.2916 2.91371 14.0665 3.03183 13.8323 3.12939C13.6711 3.19467 13.5274 3.29681 13.4127 3.42761C13.298 3.55842 13.2155 3.71427 13.1719 3.88267C13.1719 3.88267 12.8784 3.97033 12.7706 4.07017C12.6944 4.1353 12.6386 4.22108 12.61 4.31719C12.5814 4.4133 12.5812 4.51563 12.6095 4.61184C12.6377 4.70805 12.6932 4.79404 12.7692 4.85945C12.8452 4.92486 12.9385 4.96689 13.0378 4.98048C13.1815 4.99381 13.3265 4.98416 13.4672 4.95189C13.6729 5.1557 13.9501 5.27095 14.2397 5.27298L16.1189 12.0469C16.4583 13.268 16.1545 14.5894 15.2831 15.5095C15.2831 15.5095 14.1638 16.7161 12.4875 16.718C11.959 16.7139 11.4535 16.5011 11.0812 16.1259C10.7089 15.7507 10.5 15.2436 10.5 14.715C10.5003 13.9832 10.5822 13.2537 10.7442 12.54C10.9533 11.7211 11.0897 11.4539 11.34 10.9402C12.1584 10.8281 12.4748 9.62392 11.8697 8.6433C11.2345 7.61205 9.84375 7.49345 8.16656 8.0808C7.1311 8.4422 6.13828 8.46048 5.02031 8.33486C5.32837 8.27856 5.60942 8.12267 5.82028 7.89114C6.03115 7.65961 6.16016 7.36526 6.1875 7.0533C6.22406 6.63845 6.25078 6.06892 6.25078 5.28986C6.25078 4.51079 6.22406 3.94173 6.1875 3.52689C6.15798 3.19245 6.0117 2.87906 5.77429 2.64166C5.53689 2.40425 5.22351 2.25797 4.88906 2.22845C4.68328 2.21017 4.44 2.1947 4.15219 2.18158C4.15219 2.18158 4.18453 2.59173 4.17844 3.06423C4.17844 3.21564 4.17563 3.43408 4.17047 3.61548C4.16964 3.64736 4.1609 3.67853 4.14502 3.70618C4.12914 3.73383 4.10664 3.7571 4.07953 3.77389C4.05242 3.79068 4.02155 3.80045 3.98972 3.80234C3.95789 3.80423 3.92609 3.79817 3.89719 3.7847L3.23016 3.47955C3.20486 3.46796 3.17736 3.46196 3.14953 3.46196C3.12171 3.46196 3.09421 3.46796 3.06891 3.47955L2.40235 3.78658C2.37344 3.80004 2.34164 3.8061 2.30981 3.80422C2.27798 3.80233 2.24712 3.79255 2.22001 3.77576C2.1929 3.75898 2.17039 3.73571 2.15451 3.70806C2.13864 3.6804 2.12989 3.64923 2.12906 3.61736C2.12391 3.43595 2.1211 3.21751 2.1211 3.06611C2.1211 2.62361 2.14781 2.18158 2.14781 2.18158C1.83844 2.19283 1.57875 2.20923 1.36172 2.22845C1.02725 2.25788 0.713812 2.40414 0.47639 2.64156C0.238967 2.87898 0.0927146 3.19241 0.0632826 3.52689C0.0267201 3.94173 1.35147e-06 4.51126 1.35147e-06 5.28986C1.35147e-06 6.06845 0.0267201 6.63845 0.0632826 7.0533C0.0927146 7.38777 0.238967 7.7012 0.47639 7.93863C0.713812 8.17605 1.02725 8.3223 1.36172 8.35173L1.39406 8.35454C0.534845 9.17204 0.663283 10.9495 1.81031 10.9495H2.76094C1.63724 11.6189 0.724386 12.5907 0.126564 13.7541C0.0580425 13.8858 0.0161759 14.0298 0.00335966 14.1778C-0.00945659 14.3258 0.00702908 14.4748 0.0518733 14.6164C0.0967176 14.758 0.16904 14.8893 0.264703 15.0029C0.360366 15.1165 0.477491 15.2102 0.609376 15.2785C0.735263 15.3416 0.877704 15.364 1.0169 15.3425C1.1561 15.321 1.28515 15.2567 1.3861 15.1585C1.90915 14.6269 2.55527 14.2326 3.26719 14.0105C3.71117 13.8783 4.17131 13.8081 4.63453 13.8019C5.84479 13.8033 7.00509 14.2846 7.86091 15.1403C8.71674 15.9961 9.1982 17.1563 9.19969 18.3666C9.19969 18.4622 9.19672 18.5569 9.19078 18.6506C9.18873 18.6827 9.19327 18.7148 9.20413 18.7449C9.21498 18.7751 9.23192 18.8028 9.25389 18.8262C9.27586 18.8495 9.3024 18.8681 9.33186 18.8809C9.36132 18.8936 9.39308 18.9001 9.42516 18.9H14.722C15.0229 18.8916 15.3108 18.7751 15.5328 18.5719C15.7549 18.3687 15.8964 18.0923 15.9314 17.7933C16.0417 16.9265 16.3982 16.1095 16.9587 15.4391C17.5192 14.7688 18.2601 14.2731 19.0936 14.011C19.5376 13.8787 19.9977 13.8085 20.4609 13.8024C21.5154 13.8013 22.5374 14.167 23.3517 14.8369C23.6836 15.1088 24.1547 14.7253 23.9531 14.348Z" fill="#0D924B"/>
</g>
<defs>
<clipPath id="clip0_3_1026">
<rect width="24" height="24" fill="white"/>
</clipPath>
</defs>
</svg>
