<svg width="20" height="20" viewBox="0 0 20 20" fill="currentColor" xmlns="http://www.w3.org/2000/svg">
<path d="M4.33166 2.74999C4.83333 1.66666 6.55583 1.66666 10 1.66666C13.4442 1.66666 15.1667 1.66666 15.6683 2.74999C15.7117 2.84221 15.7478 2.93832 15.7767 3.03832C16.1183 4.19416 14.9 5.53416 12.465 8.21332L10.8333 9.99999L12.465 11.7858C14.9 14.4658 16.1175 15.8058 15.7767 16.9608C15.7478 17.06 15.7116 17.157 15.6683 17.2508C15.1667 18.3333 13.4442 18.3333 10 18.3333C6.55583 18.3333 4.83333 18.3333 4.33166 17.25C4.28849 17.1567 4.25228 17.0603 4.22333 16.9617C3.88166 15.8058 5.1 14.4658 7.535 11.7867L9.16666 9.99999L7.535 8.21416C5.1 5.53332 3.88333 4.19416 4.22333 3.03916C4.25222 2.93916 4.28833 2.84332 4.33166 2.74999Z" fill="white"/>
</svg>
