<svg width="20" height="20" viewBox="0 0 20 20" fill="none" xmlns="http://www.w3.org/2000/svg">
<path d="M6.66663 10.1667H12.5" stroke="#71839B" stroke-width="1.5" stroke-miterlimit="10" stroke-linecap="round" stroke-linejoin="round"/>
<path d="M6.66663 13.5H10.3166" stroke="#71839B" stroke-width="1.5" stroke-miterlimit="10" stroke-linecap="round" stroke-linejoin="round"/>
<path d="M8.33329 4.99999H11.6666C13.3333 4.99999 13.3333 4.16666 13.3333 3.33332C13.3333 1.66666 12.5 1.66666 11.6666 1.66666H8.33329C7.49996 1.66666 6.66663 1.66666 6.66663 3.33332C6.66663 4.99999 7.49996 4.99999 8.33329 4.99999Z" stroke="#71839B" stroke-width="1.5" stroke-miterlimit="10" stroke-linecap="round" stroke-linejoin="round"/>
<path d="M13.3333 3.35001C16.1083 3.50001 17.5 4.52501 17.5 8.33334V13.3333C17.5 16.6667 16.6667 18.3333 12.5 18.3333H7.5C3.33333 18.3333 2.5 16.6667 2.5 13.3333V8.33334C2.5 4.53334 3.89167 3.50001 6.66667 3.35001" stroke="#71839B" stroke-width="1.5" stroke-miterlimit="10" stroke-linecap="round" stroke-linejoin="round"/>
</svg>
