<svg class="icon" style="width: 1.041015625em;height: 1em;vertical-align: middle;fill: currentColor;overflow: hidden;" viewBox="0 0 1066 1024" version="1.1" xmlns="http://www.w3.org/2000/svg" p-id="1091"><path d="M240.213333 381.44l256-192a83.2 83.2 0 0 1 99.84 0l256 192c20.949333 15.701333 33.28 40.362667 33.28 66.56v401.365333h-180.608v-102.485333a158.592 158.592 0 1 0-317.184 0v103.850667l-180.608-0.896V448c0-26.197333 12.330667-50.858667 33.28-66.56zM186.453333 309.76a172.8 172.8 0 0 0-69.12 138.24v403.968a87.466667 87.466667 0 0 0 87.04 87.466667l184.874667 0.938666a87.466667 87.466667 0 0 0 87.893333-87.466666v-106.026667a68.992 68.992 0 1 1 137.984 0v104.618667a87.466667 87.466667 0 0 0 87.466667 87.466666H887.466667a87.466667 87.466667 0 0 0 87.466666-87.466666V448a172.8 172.8 0 0 0-69.12-138.24l-256-192a172.8 172.8 0 0 0-207.36 0l-256 192z" fill="#313438" p-id="1092"></path></svg>