<svg width="20" height="20" viewBox="0 0 20 20" fill="none" xmlns="http://www.w3.org/2000/svg">
<path d="M18.3332 7.50002V12.5C18.3332 14.5834 17.9165 16.0417 16.9832 16.9834L11.6665 11.6667L18.1082 5.22502C18.2582 5.88335 18.3332 6.63335 18.3332 7.50002Z" stroke="#71839B" stroke-width="1.5" stroke-linecap="round" stroke-linejoin="round"/>
<path d="M18.1082 5.22501L5.22483 18.1083C2.71649 17.5333 1.6665 15.8 1.6665 12.5V7.50001C1.6665 3.33334 3.33317 1.66667 7.49984 1.66667H12.4998C15.7998 1.66667 17.5332 2.71668 18.1082 5.22501Z" stroke="#71839B" stroke-width="1.5" stroke-linecap="round" stroke-linejoin="round"/>
<path d="M16.9834 16.9833C16.0418 17.9167 14.5834 18.3333 12.5001 18.3333H7.50011C6.63344 18.3333 5.88343 18.2583 5.2251 18.1083L11.6668 11.6667L16.9834 16.9833Z" stroke="#71839B" stroke-width="1.5" stroke-linecap="round" stroke-linejoin="round"/>
<path d="M5.19973 6.64998C5.7664 4.20831 9.43307 4.20831 9.99974 6.64998C10.3247 8.08331 9.42473 9.29998 8.63306 10.05C8.05806 10.6 7.14974 10.6 6.56641 10.05C5.77474 9.29998 4.8664 8.08331 5.19973 6.64998Z" stroke="#71839B" stroke-width="1.5"/>
<path d="M7.57908 7.24996H7.58657" stroke="#71839B" stroke-width="2" stroke-linecap="round" stroke-linejoin="round"/>
</svg>
