<svg width="20" height="20" viewBox="0 0 20 20" fill="none" xmlns="http://www.w3.org/2000/svg">
<path d="M3.11832 15.4625C4.11832 16.6667 5.97832 16.6667 9.69999 16.6667H10.3C14.0217 16.6667 15.8825 16.6667 16.8825 15.4625M3.11832 15.4625C2.11832 14.2575 2.46166 12.4292 3.14749 8.77084C3.63499 6.17084 3.87832 4.87001 4.80416 4.10168M16.8825 15.4625C17.8825 14.2575 17.5392 12.4292 16.8533 8.77084C16.3658 6.17084 16.1217 4.87001 15.1958 4.10168M15.1958 4.10168C14.2708 3.33334 12.9467 3.33334 10.3008 3.33334H9.69916C7.05332 3.33334 5.72999 3.33334 4.80416 4.10168" stroke="#71839B" stroke-width="1.5"/>
<path d="M7.6416 6.66669C7.81377 7.15463 8.13305 7.57716 8.55543 7.87603C8.97782 8.1749 9.48251 8.3354 9.99993 8.3354C10.5174 8.3354 11.0221 8.1749 11.4444 7.87603C11.8668 7.57716 12.1861 7.15463 12.3583 6.66669" stroke="#71839B" stroke-width="1.5" stroke-linecap="round"/>
</svg>
