<svg width="20" height="20" viewBox="0 0 20 20" fill="none" xmlns="http://www.w3.org/2000/svg">
<path d="M12.5 1.66666V9.99999C12.5 10.9167 11.75 11.6667 10.8333 11.6667H1.66663V4.99999C1.66663 3.15832 3.15829 1.66666 4.99996 1.66666H12.5Z" stroke="#71839B" stroke-width="1.5" stroke-linecap="round" stroke-linejoin="round"/>
<path d="M18.3333 11.6667V14.1667C18.3333 15.55 17.2166 16.6667 15.8333 16.6667H15C15 15.75 14.25 15 13.3333 15C12.4166 15 11.6666 15.75 11.6666 16.6667H8.33329C8.33329 15.75 7.58329 15 6.66663 15C5.74996 15 4.99996 15.75 4.99996 16.6667H4.16663C2.78329 16.6667 1.66663 15.55 1.66663 14.1667V11.6667H10.8333C11.75 11.6667 12.5 10.9167 12.5 9.99999V4.16666H14.0333C14.6333 4.16666 15.1833 4.49166 15.4833 5.00833L16.9083 7.49999H15.8333C15.375 7.49999 15 7.87499 15 8.33332V10.8333C15 11.2917 15.375 11.6667 15.8333 11.6667H18.3333Z" stroke="#71839B" stroke-width="1.5" stroke-linecap="round" stroke-linejoin="round"/>
<path d="M6.66667 18.3333C7.58714 18.3333 8.33333 17.5871 8.33333 16.6667C8.33333 15.7462 7.58714 15 6.66667 15C5.74619 15 5 15.7462 5 16.6667C5 17.5871 5.74619 18.3333 6.66667 18.3333Z" stroke="#71839B" stroke-width="1.5" stroke-linecap="round" stroke-linejoin="round"/>
<path d="M13.3333 18.3333C14.2538 18.3333 15 17.5871 15 16.6667C15 15.7462 14.2538 15 13.3333 15C12.4128 15 11.6666 15.7462 11.6666 16.6667C11.6666 17.5871 12.4128 18.3333 13.3333 18.3333Z" stroke="#71839B" stroke-width="1.5" stroke-linecap="round" stroke-linejoin="round"/>
<path d="M18.3333 10V11.6667H15.8333C15.375 11.6667 15 11.2917 15 10.8333V8.33333C15 7.875 15.375 7.5 15.8333 7.5H16.9083L18.3333 10Z" stroke="#71839B" stroke-width="1.5" stroke-linecap="round" stroke-linejoin="round"/>
</svg>
