<svg width="20" height="20" viewBox="0 0 20 20" fill="none" xmlns="http://www.w3.org/2000/svg">
<path d="M15.1166 18.0167C14.3833 18.2333 13.5166 18.3333 12.5 18.3333H7.49997C6.4833 18.3333 5.61663 18.2333 4.8833 18.0167C5.06663 15.85 7.29163 14.1416 9.99997 14.1416C12.7083 14.1416 14.9333 15.85 15.1166 18.0167Z" stroke="#71839B" stroke-width="1.5" stroke-linecap="round" stroke-linejoin="round"/>
<path d="M12.5 1.66667H7.49996C3.33329 1.66667 1.66663 3.33334 1.66663 7.50001V12.5C1.66663 15.65 2.61663 17.375 4.88329 18.0167C5.06663 15.85 7.29163 14.1416 9.99996 14.1416C12.7083 14.1416 14.9333 15.85 15.1166 18.0167C17.3833 17.375 18.3333 15.65 18.3333 12.5V7.50001C18.3333 3.33334 16.6666 1.66667 12.5 1.66667ZM9.99996 11.8083C8.34996 11.8083 7.01662 10.4667 7.01662 8.81669C7.01662 7.16669 8.34996 5.83334 9.99996 5.83334C11.65 5.83334 12.9833 7.16669 12.9833 8.81669C12.9833 10.4667 11.65 11.8083 9.99996 11.8083Z" stroke="#71839B" stroke-width="1.5" stroke-linecap="round" stroke-linejoin="round"/>
<path d="M12.9834 8.81668C12.9834 10.4667 11.6501 11.8083 10.0001 11.8083C8.35006 11.8083 7.01672 10.4667 7.01672 8.81668C7.01672 7.16668 8.35006 5.83333 10.0001 5.83333C11.6501 5.83333 12.9834 7.16668 12.9834 8.81668Z" stroke="#71839B" stroke-width="1.5" stroke-linecap="round" stroke-linejoin="round"/>
</svg>
